# xmcd
#
# Track frame offsets:
#	150
#	13430
#	29495
#	47910
#	64749
#	74607
#	92320
#	114557
#	132543
#	153252
#	164787
#	180404
#	195616
#	215669
#	236253
#	256038
#	276855
#	298858
#	319680
#	335433
#
# Disc length: 4662 seconds
#
# Revision: 0
# Processed by: cddbd v1.4PL0 Copyright (c) Steve Scherf et al.
# Submitted via: EasyCDDAExtractor 4.6.9.1
#
DISCID=30123414
DTITLE=joe ely - from lubbock to laredo
DYEAR=2002
DGENRE=Country
TTITLE0=treat me like a saturday night
TTITLE1=she never spoke spanish to me
TTITLE2=johnny's blues
TTITLE3=honky tonk masquerade
TTITLE4=fingernails
TTITLE5=boxcars
TTITLE6=west texas waltz
TTITLE7=because of the wind
TTITLE8=down on the drag
TTITLE9=musta notta gotta lotta
TTITLE10=dallas
TTITLE11=cool rockin' loretta
TTITLE12=slow you down
TTITLE13=the road goes on forever
TTITLE14=settle for love
TTITLE15=letter to laredo
TTITLE16=run preciosa
TTITLE17=sister soak the beans
TTITLE18=nacho mama
TTITLE19=if i could teach my chihuahua to sing
EXTD=
EXTT0=
EXTT1=
EXTT2=
EXTT3=
EXTT4=
EXTT5=
EXTT6=
EXTT7=
EXTT8=
EXTT9=
EXTT10=
EXTT11=
EXTT12=
EXTT13=
EXTT14=
EXTT15=
EXTT16=
EXTT17=
EXTT18=
EXTT19=
PLAYORDER=
